<?xml version="1.0" encoding="UTF-8"?>
<svg width="48px" height="48px" viewBox="0 0 48 48" version="1.1" xmlns="http://www.w3.org/2000/svg" xmlns:xlink="http://www.w3.org/1999/xlink">
    <title>C2778194-B99C-4E3A-AD76-1C9FF40EC871</title>
    <g id="Dev-test" stroke="none" stroke-width="1" fill="none" fill-rule="evenodd">
        <g id="Dev-test---Car" transform="translate(-1068, -552)">
            <g id="Icon-/-Chevron-Right" transform="translate(1068, 552)">
                <polygon id="24pt-Bounding-Box" opacity="0" fill-rule="nonzero" points="0 0 48 0 48 48 0 48"></polygon>
                <path d="M21,34.0000335 L21,34.0000335 C20.468394,34.0030735 19.957438,33.794374 19.58,33.42 L19.58,33.42 C18.795756,32.64216 18.790564,31.37584 19.5684033,30.5916 C19.5722529,30.5877187 19.5761185,30.5838531 19.5799999,30.5800034 L26.1999999,24.0000034 L19.8399999,17.3800034 L19.8399999,17.3800034 C19.0645519,16.5999294 19.0645519,15.3400834 19.8399999,14.5600034 L19.8399998,14.5600035 C20.6178398,13.7757595 21.8841598,13.7705675 22.6683998,14.5484067 C22.6722812,14.5522564 22.6761468,14.556122 22.6799965,14.5600034 L30.3999965,22.5600034 L30.3999965,22.5600034 C31.1622825,23.3376914 31.1622825,24.5823234 30.3999964,25.3600034 L22.3999964,33.3600034 L22.3999964,33.3600034 C22.0374064,33.7515754 21.5333604,33.9819974 20.9999964,34.0000335 L21,34.0000335 Z" id="Fill" fill="#FFFFFF"></path>
            </g>
        </g>
    </g>
</svg>